<?xml version="1.0" encoding="UTF-8"?>
<svg version="1.1" xmlns="http://www.w3.org/2000/svg" width="512" height="512">
<path d="M0 0 C1.77055795 -0.00679667 1.77055795 -0.00679667 3.57688475 -0.01373065 C6.81766003 -0.02412039 10.05829395 -0.0257144 13.29908037 -0.02334189 C16.80850303 -0.02293067 20.31789364 -0.03400189 23.82730103 -0.04345703 C30.69046133 -0.06000376 37.55358727 -0.06556374 44.41676587 -0.06668179 C50.00269727 -0.06763549 55.58861744 -0.07176178 61.17454529 -0.07808304 C77.05022319 -0.09567991 92.92587416 -0.1049246 108.80156189 -0.10342209 C110.08284601 -0.10330222 110.08284601 -0.10330222 111.39001465 -0.10317993 C112.67288373 -0.10305729 112.67288373 -0.10305729 113.98166937 -0.10293217 C127.82520821 -0.10212021 141.66863801 -0.12123933 155.51214534 -0.14945666 C169.76434594 -0.17827514 184.01649353 -0.19199198 198.26872396 -0.19026911 C206.25498661 -0.18960819 214.24113501 -0.19496859 222.22737122 -0.21662521 C229.03009046 -0.23495571 235.83264369 -0.23908825 242.63537711 -0.22560637 C246.09720996 -0.21913524 249.55872545 -0.2187429 253.02052689 -0.23631287 C291.8989787 -0.39729253 324.33891021 9.74454714 352.68200684 37.26742554 C374.41957408 58.93684994 388.7780019 89.39707262 388.95415574 120.33201098 C388.95037642 121.41451798 388.9465971 122.49702497 388.94270325 123.61233521 C388.94652879 124.79552943 388.95035434 125.97872366 388.95429581 127.19777226 C388.96276406 130.4462743 388.96241718 133.6946297 388.95811522 136.94313526 C388.95563149 140.46065746 388.96468251 143.97815395 388.97215271 147.4956665 C388.98485683 154.37353126 388.98669873 161.2513569 388.98435245 168.12923142 C388.98256411 173.72473138 388.98432995 179.32021953 388.98857689 184.91571808 C388.98917208 185.71432739 388.98976727 186.51293671 388.99038049 187.3357463 C388.99159234 188.9585262 388.99280647 190.58130609 388.99402287 192.20408598 C389.00488215 207.3993957 389.00274372 222.59468319 388.99663802 237.78999415 C388.99147178 251.66208257 389.00271945 265.5341007 389.02173624 279.40617523 C389.04115368 293.68095567 389.04936371 307.95570292 389.04561299 322.23049664 C389.04370667 330.23225802 389.0461326 338.23395961 389.06032753 346.23571014 C389.07229231 353.04877224 389.07358959 359.86173777 389.06153736 366.67480132 C389.05568384 370.14418615 389.05445011 373.61339481 389.06653976 377.08276749 C389.1047751 390.7897967 389.11102448 403.92593145 385.68200684 417.26742554 C385.45611531 418.1580859 385.23022379 419.04874626 384.99748707 419.96639633 C384.44470937 422.03723625 383.81336807 424.05233392 383.11950684 426.07992554 C382.87047607 426.8129187 382.62144531 427.54591187 382.36486816 428.30111694 C370.71470842 460.92709055 346.3469455 486.47044668 315.43200684 501.45492554 C299.50703056 508.90890166 282.92355995 512.58952103 265.33709717 512.52812195 C264.15390294 512.5319475 262.97070871 512.53577304 261.75166011 512.53971452 C258.50315807 512.54818277 255.25480267 512.54783588 252.00629711 512.54353392 C248.48877491 512.54105019 244.97127842 512.55010121 241.45376587 512.55757141 C234.57590111 512.57027553 227.69807547 512.57211743 220.82020095 512.56977115 C215.22470099 512.56798281 209.62921284 512.56974865 204.03371429 512.57399559 C203.23510498 512.57459078 202.43649567 512.57518597 201.61368607 512.57579919 C199.99090618 512.57701104 198.36812629 512.57822518 196.7453464 512.57944157 C181.55003668 512.59030085 166.35474918 512.58816242 151.15943822 512.58205672 C137.2873498 512.57689048 123.41533167 512.58813815 109.54325715 512.60715494 C95.26847671 512.62657238 80.99372945 512.63478242 66.71893573 512.63103169 C58.71717436 512.62912537 50.71547276 512.6315513 42.71372223 512.64574623 C35.90066013 512.65771101 29.0876946 512.65900829 22.27463105 512.64695606 C18.80524622 512.64110254 15.33603757 512.63986882 11.86666489 512.65195847 C-1.84036433 512.6901938 -14.97649908 512.69644318 -28.31799316 509.26742554 C-29.65398371 508.92858825 -29.65398371 508.92858825 -31.01696396 508.58290577 C-33.08780388 508.03012807 -35.10290155 507.39878677 -37.13049316 506.70492554 C-38.22998291 506.33137939 -38.22998291 506.33137939 -39.35168457 505.95028687 C-71.97765817 494.30012712 -97.52101431 469.9323642 -112.50549316 439.01742554 C-119.95485503 423.10230735 -123.63583142 406.52482345 -123.5854187 388.94943237 C-123.58994981 387.76906041 -123.59448093 386.58868844 -123.59914935 385.37254763 C-123.60953909 382.13177234 -123.6111331 378.89113842 -123.6087606 375.650352 C-123.60834937 372.14092934 -123.61942059 368.63153873 -123.62887573 365.12213135 C-123.64542246 358.25897104 -123.65098244 351.3958451 -123.65210049 344.5326665 C-123.65305419 338.9467351 -123.65718048 333.36081493 -123.66350174 327.77488708 C-123.68109861 311.89920918 -123.69034331 296.02355821 -123.68884079 280.14787048 C-123.68876088 279.29368107 -123.68868097 278.43949166 -123.68859863 277.55941772 C-123.68851687 276.70417167 -123.68843511 275.84892561 -123.68835087 274.96776301 C-123.68753891 261.12422416 -123.70665803 247.28079437 -123.73487537 233.43728703 C-123.76369384 219.18508643 -123.77741068 204.93293885 -123.77568781 190.68070841 C-123.77502689 182.69444576 -123.78038729 174.70829737 -123.80204391 166.72206116 C-123.82037441 159.91934191 -123.82450695 153.11678868 -123.81102507 146.31405526 C-123.80455394 142.85222242 -123.8041616 139.39070692 -123.82173157 135.92890549 C-123.98271123 97.05045367 -113.84087156 64.61052217 -86.31799316 36.26742554 C-63.51796498 13.39569915 -32.3397463 -0.09276235 0 0 Z " fill="#2CCC2D" transform="translate(123.3179931640625,-0.267425537109375)"/>
<path d="M0 0 C4.07641546 2.71761031 6.98953504 5.2912728 8.484375 9.984375 C9.50246856 15.88931763 8.10313228 19.88179007 4.8125 24.875 C0.9259997 29.33828069 -3.27442718 33.46806766 -7.48339844 37.625 C-8.75576786 38.89624001 -10.02725492 40.1683637 -11.29792786 41.44129944 C-14.73703095 44.88154691 -18.18829834 48.30934927 -21.64192867 51.73500443 C-25.25391124 55.3219275 -28.85451741 58.92023391 -32.45635986 62.51733398 C-39.27288968 69.32144742 -46.09954868 76.11530276 -52.92993093 82.90550709 C-60.70803669 90.63885362 -68.47474396 98.3836049 -76.24052763 106.12932205 C-92.21022538 122.05724579 -108.19414206 137.97083629 -124.1875 153.875 C-122.61256133 157.7261341 -120.0144137 160.31781126 -117.10107422 163.18847656 C-116.5780818 163.7117667 -116.05508938 164.23505684 -115.5162487 164.77420425 C-113.76293297 166.52613124 -112.00257483 168.27080606 -110.2421875 170.015625 C-108.98362627 171.27034789 -107.72551964 172.52552691 -106.46783447 173.78112793 C-103.75876661 176.4838727 -101.04662207 179.18347843 -98.33209229 181.8807373 C-94.0412901 186.14451617 -89.7581074 190.41589371 -85.47607422 194.68847656 C-76.38577262 203.75656856 -67.28706545 212.81620546 -58.1875 221.875 C-48.36432088 231.65416603 -38.54257432 241.43474422 -28.73055458 251.2251091 C-24.4721751 255.47351265 -20.208963 259.71698871 -15.9420166 263.95678711 C-13.29038782 266.5935147 -10.64289334 269.23436346 -7.99651337 271.87635803 C-6.76712361 273.10199841 -5.53600354 274.32590595 -4.30304718 275.54795837 C-2.62203446 277.21456907 -0.94727404 278.88722261 0.72607422 280.56152344 C1.21692568 281.04518497 1.70777714 281.52884651 2.21350288 282.02716446 C6.43730217 286.27684282 8.10357697 289.25789581 8.1875 295.25 C8.09424015 300.24606338 7.23703949 303.06995613 3.8125 306.875 C-0.2025799 310.40340355 -3.66200789 310.99428289 -8.95703125 311.30078125 C-14.81813169 310.18193721 -19.32294479 305.02518147 -23.36909485 300.94064331 C-23.96154737 300.3506052 -24.55399989 299.7605671 -25.16440552 299.15264904 C-27.13822212 297.18444524 -29.10484013 295.20920664 -31.0715332 293.23388672 C-32.48907505 291.81741831 -33.90704987 290.4013831 -35.32542419 288.98574829 C-39.16844629 285.14756616 -43.00520143 281.30317532 -46.84072137 277.45749807 C-50.854164 273.43526594 -54.87288379 269.41831274 -58.89091492 265.40066528 C-65.63357274 258.65707154 -72.37234916 251.90961892 -79.10864258 245.15966797 C-86.90454192 237.34802161 -94.70567732 229.54163593 -102.50982028 221.73822582 C-110.01300029 214.23565531 -117.51332308 206.73023564 -125.01204491 199.22320938 C-128.20622707 196.02549053 -131.40126261 192.82862789 -134.59694862 189.63241196 C-138.35444544 185.87391342 -142.10939144 182.11288489 -145.86234474 178.3498497 C-147.24302132 176.96624344 -148.62455406 175.58349095 -150.00698471 174.20163727 C-151.88725432 172.32185564 -153.76443738 170.43904647 -155.64082336 168.5553894 C-156.19411436 168.00364701 -156.74740535 167.45190462 -157.31746274 166.88344276 C-161.31541463 162.85970334 -162.38887436 160.9027047 -162.625 155.25 C-162.68558594 154.24710938 -162.74617187 153.24421875 -162.80859375 152.2109375 C-161.0538454 142.7860627 -151.15925682 135.56245354 -144.61425781 129.04296875 C-143.44380546 127.86980224 -142.27377812 126.69621158 -141.10414124 125.52223206 C-137.94589039 122.3549116 -134.7814047 119.19389167 -131.61543751 116.0342865 C-128.29952052 112.72345049 -124.98850553 109.40771792 -121.67669678 106.09277344 C-116.12220197 100.53464815 -110.56352074 94.98073593 -105.00244141 89.42919922 C-98.56723355 83.0049063 -92.13930562 76.57339672 -85.71504903 70.13815403 C-80.19589874 64.60994298 -74.67287977 59.0856197 -69.14657664 53.56455898 C-65.84693364 50.26803823 -62.5486671 46.97017084 -59.25388336 43.66879272 C-56.16232559 40.57147862 -53.06595667 37.47905786 -49.96572685 34.39042473 C-48.82634899 33.25370128 -47.68868797 32.11525413 -46.55283546 30.97500801 C-45.00822706 29.42497426 -43.45765626 27.88117029 -41.90533447 26.33886719 C-41.03742405 25.47171082 -40.16951363 24.60455444 -39.27530289 23.71112061 C-37.1875 21.875 -37.1875 21.875 -35.1875 21.875 C-35.1875 21.215 -35.1875 20.555 -35.1875 19.875 C-33.52534732 18.53604368 -31.85786393 17.20369858 -30.1875 15.875 C-28.82922029 14.22860035 -27.49495749 12.56204193 -26.1875 10.875 C-24.0625 8.5625 -24.0625 8.5625 -22.1875 6.875 C-21.5275 6.875 -20.8675 6.875 -20.1875 6.875 C-19.8575 5.885 -19.5275 4.895 -19.1875 3.875 C-13.2083686 -1.41824601 -7.59036166 -2.67895118 0 0 Z " fill="#FCFEFC" transform="translate(333.1875,101.125)"/>
</svg>
