<?xml version="1.0" encoding="UTF-8"?>

<svg version="1.1" xmlns="http://www.w3.org/2000/svg" width="512" height="512">
<path d="M0 0 C1.31144485 -0.00511093 2.62288971 -0.01022186 3.97407532 -0.01548767 C7.5568912 -0.02882939 11.13960128 -0.02946161 14.72243714 -0.02692437 C17.72164554 -0.02585108 20.72083283 -0.0307473 23.72003669 -0.03552979 C30.80132971 -0.04660892 37.88256969 -0.04707179 44.96386719 -0.04101562 C52.24896722 -0.03498053 59.53387389 -0.04727862 66.81894094 -0.06858569 C73.09096113 -0.08624976 79.36292004 -0.09219539 85.63496417 -0.08894795 C89.37324611 -0.08714213 93.11139019 -0.08970045 96.84964943 -0.10366249 C101.02359013 -0.11866945 105.19714207 -0.10922888 109.37109375 -0.09765625 C111.2082193 -0.10912186 111.2082193 -0.10912186 113.0824585 -0.12081909 C122.97786289 -0.06035554 131.63832613 1.0124859 139.02124023 8.08422852 C142.64433987 12.35465021 145.15929884 17.21188869 147.75463867 22.1496582 C149.43512811 25.2733915 151.12051705 28.38952452 152.86303711 31.47917175 C154.32574905 34.13071644 155.53575296 36.80558021 156.68896484 39.60444641 C160.25778477 47.80496107 160.25778477 47.80496107 166.99914932 53.22705078 C173.2760444 54.70832734 179.6808045 54.27023744 186.07495117 54.01293945 C188.15219257 53.99347023 190.22952472 53.98215415 192.30685425 53.9785614 C197.7649382 53.95008163 203.2161631 53.82362968 208.67205811 53.67236328 C217.37750709 53.44978848 226.08603792 53.38793997 234.79369736 53.3049221 C237.81002416 53.26399015 240.8237197 53.18825611 243.83914185 53.10505676 C259.66827689 52.75421376 275.57179 53.85961533 287.86401367 65.0871582 C298.05017456 75.88274752 301.03680292 90.03148522 302.05053711 104.42163086 C302.13024624 105.51739756 302.20995537 106.61316425 302.29207993 107.742136 C303.36269045 124.46987278 303.171165 141.24954815 303.14828968 158.00336409 C303.14314017 162.97202218 303.14794504 167.9406738 303.15106201 172.90933228 C303.15467404 181.23831534 303.14997382 189.56726263 303.14038086 197.89624023 C303.12948014 207.47011336 303.13304486 217.04390136 303.14403367 226.61777246 C303.1531603 234.90729535 303.15436637 243.19679289 303.14915633 251.48631918 C303.14606874 256.40725893 303.14553777 261.32815887 303.15222931 266.24909592 C303.15808205 270.87379371 303.15386391 275.49838343 303.1424408 280.12306976 C303.13983691 281.80142413 303.14048417 283.47978788 303.14496613 285.15813828 C303.16667579 294.12658549 302.85777151 302.9914624 302.00799561 311.92324829 C301.93314257 312.73694236 301.85828953 313.55063643 301.78116822 314.3889879 C299.99855152 331.42805812 292.61741134 346.20916161 279.49682617 357.28637695 C264.40675502 368.47049721 247.03801924 370.74497353 228.78845215 370.65560913 C227.22289407 370.65907493 225.65733844 370.66384563 224.09178782 370.66979086 C219.83337291 370.68220398 215.57516216 370.67617517 211.31674695 370.66683221 C206.70726025 370.66000192 202.09780694 370.67054254 197.48832703 370.67877197 C188.47556194 370.6920693 179.46287207 370.68924947 170.45010412 370.68053405 C163.12125559 370.67374211 155.79242805 370.6728473 148.46357727 370.6761055 C146.89532919 370.67679505 146.89532919 370.67679505 145.29539934 370.67749853 C143.17108531 370.67845776 141.04677129 370.6794304 138.92245728 370.6804163 C119.03119006 370.68895848 99.13996441 370.67915449 79.24870402 370.6630152 C62.20362367 370.6496131 45.15860463 370.65194152 28.11352539 370.66577148 C8.2904737 370.68184804 -11.53254162 370.68813461 -31.35559893 370.67893469 C-33.47183259 370.67797911 -35.58806625 370.67703599 -37.70429993 370.6761055 C-39.26589337 370.67541126 -39.26589337 370.67541126 -40.85903415 370.67470299 C-48.17390991 370.67211933 -55.48876248 370.67647062 -62.80363464 370.68354416 C-71.72541563 370.69198245 -80.6471175 370.68963022 -89.5688895 370.67370193 C-94.11559454 370.66585047 -98.66216795 370.66267392 -103.20887184 370.67264938 C-107.38000312 370.68166203 -111.55088213 370.67655666 -115.72199088 370.66071673 C-117.22179697 370.65739649 -118.72162487 370.65899992 -120.22141665 370.66634409 C-140.81251454 370.75935115 -159.41841802 366.33212736 -174.87036133 351.9621582 C-192.84061123 332.93731617 -192.27325607 306.11193366 -192.265625 281.73168945 C-192.26862357 279.80162492 -192.27202769 277.87156098 -192.27580261 275.9414978 C-192.28457277 270.73907017 -192.28697767 265.53665902 -192.2876184 260.3342247 C-192.28833253 257.07597434 -192.29047361 253.81772809 -192.29311562 250.55947876 C-192.30234374 239.17059058 -192.30645342 227.78171406 -192.30566406 216.39282227 C-192.30506296 205.81025381 -192.31562768 195.22773627 -192.33140773 184.6451807 C-192.3445151 175.52713057 -192.34984667 166.40909703 -192.34920865 157.29103756 C-192.34895474 151.85925944 -192.35174712 146.42752671 -192.3623867 140.99575806 C-192.3721225 135.88699176 -192.37210956 130.77831377 -192.36487007 125.66954422 C-192.36383124 123.80484512 -192.36614499 121.94014036 -192.37223053 120.0754509 C-192.43095783 100.82013463 -191.63852651 80.75430566 -177.82739258 65.7902832 C-167.39714185 55.89367321 -156.21859423 52.93278783 -142.10253906 53.04760742 C-141.14537491 53.04731537 -140.18821075 53.04702332 -139.20204163 53.04672241 C-136.0692507 53.04810481 -132.93670395 53.06361431 -129.80395508 53.0793457 C-127.61963531 53.08307971 -125.43531387 53.08592485 -123.25099182 53.08792114 C-117.5250479 53.09552704 -111.79920677 53.11514923 -106.07330322 53.1373291 C-100.22116486 53.15785329 -94.36900975 53.16693688 -88.5168457 53.17700195 C-77.05130595 53.19839812 -65.58584222 53.23249709 -54.12036133 53.2746582 C-53.8208255 52.50822998 -53.52128967 51.74180176 -53.212677 50.95214844 C-51.98424743 47.94101505 -50.50256906 45.18108783 -48.92504883 42.3371582 C-48.29083008 41.19375977 -47.65661133 40.05036133 -47.00317383 38.87231445 C-46.50672363 37.98310303 -46.50672363 37.98310303 -46.00024414 37.07592773 C-45.01504472 35.30994101 -44.03610425 33.54059935 -43.05786133 31.77075195 C-39.76664344 25.8384646 -36.4012108 19.94914951 -32.91333008 14.13012695 C-32.29482178 13.09267334 -31.67631348 12.05521973 -31.0390625 10.98632812 C-23.48723095 0.31344442 -11.94118683 -0.02403538 0 0 Z M-43.49536133 115.7746582 C-63.24321099 138.45535683 -75.57383794 167.14088435 -77.12036133 197.2746582 C-77.17321289 198.25821289 -77.22606445 199.24176758 -77.28051758 200.25512695 C-78.23264258 235.56654549 -64.7310434 269.32974936 -40.71020508 294.93481445 C-17.32408439 319.36380477 13.85707408 334.57352997 47.87963867 336.2746582 C49.46518555 336.35393555 49.46518555 336.35393555 51.08276367 336.43481445 C84.04412876 337.25528133 116.11239903 326.03634956 140.87963867 304.2746582 C141.70850586 303.57856445 142.53737305 302.8824707 143.39135742 302.1652832 C168.08467798 280.92204982 184.33266865 248.80691727 186.87963867 216.2746582 C187.55654073 202.04356626 187.13058655 188.16947415 183.87963867 174.2746582 C183.71866699 173.57856445 183.55769531 172.8824707 183.3918457 172.1652832 C175.51691839 139.48546958 154.21565713 110.27132481 125.87963867 92.2746582 C70.12862267 58.48505511 0.92660267 68.67915008 -43.49536133 115.7746582 Z M-156.56176758 87.20825195 C-160.15408757 92.94982322 -161.60414815 98.50164276 -161.12036133 105.2746582 C-159.10097752 113.80094541 -155.86631921 119.61771571 -148.55786133 124.5246582 C-142.43860857 128.00723293 -136.66244124 129.05372045 -129.70629883 127.8605957 C-122.73379123 125.8718736 -117.22096899 121.92805736 -112.74536133 116.2746582 C-108.92256409 109.21718638 -107.82020178 102.49865254 -109.77270508 94.65356445 C-112.26175652 87.63508035 -115.92070973 82.6532844 -122.44458008 78.95825195 C-134.8402059 73.37340955 -148.19259614 75.98131466 -156.56176758 87.20825195 Z " fill="#00A176" transform="translate(201.120361328125,70.725341796875)"/>
<path d="M0 0 C20.73741955 17.31275141 35.52856811 41.55911791 38.64550781 68.74291992 C41.11457536 96.82251168 35.30361263 125.81832191 17.15722656 148.07104492 C15.72532089 149.72174773 14.28865791 151.36835107 12.84472656 153.00854492 C12.06097656 154.03979492 11.27722656 155.07104492 10.46972656 156.13354492 C-8.5541529 176.96922242 -35.8907102 187.4376599 -63.53417969 189.22729492 C-91.48509854 190.004609 -119.12514326 179.7847019 -139.67871094 160.82885742 C-146.0120804 154.77322803 -151.54370316 148.49213113 -156.15527344 141.00854492 C-156.73664063 140.11006836 -157.31800781 139.2115918 -157.91699219 138.28588867 C-172.50006191 114.78215591 -176.66282599 85.85438093 -170.69873047 58.94897461 C-164.53570961 33.43252898 -149.14794907 8.92583967 -126.79199219 -5.44848633 C-125.921875 -5.95766602 -125.05175781 -6.4668457 -124.15527344 -6.99145508 C-123.02734375 -7.65532227 -121.89941406 -8.31918945 -120.73730469 -9.00317383 C-82.50968455 -30.76560109 -34.3886462 -27.6390549 0 0 Z " fill="#B0D013" transform="translate(323.1552734375,191.991455078125)"/>
<path d="M0 0 C0.50225098 0.24645264 1.00450195 0.49290527 1.52197266 0.74682617 C21.37522566 10.44265351 41.14608036 16.6751761 62.6875 21.5 C77.31811907 25.22646737 89.25674771 34.60533222 97.41796875 47.234375 C102.39923398 55.94236459 106.17108813 64.73173422 108.9375 74.375 C109.14906738 75.09945312 109.36063477 75.82390625 109.57861328 76.5703125 C110.98695944 81.82494191 111.17690484 86.56419684 111 92 C107.48726473 89.06077253 104.11877469 86.16619538 101 82.8125 C90.11687213 71.90540048 69.04714946 55.57987331 53.1875 54.875 C52.465625 54.91625 51.74375 54.9575 51 55 C50.93964294 57.4125593 50.93964294 57.4125593 52 60 C54.41564294 61.33997497 56.55987092 62.30206268 59.125 63.25 C87.83387945 74.85496151 109.91189685 96.41482995 122.20703125 124.78515625 C123.6766203 128.80471718 124.45891396 131.88851521 123 136 C121.35 136 119.7 136 118 136 C117.76812988 135.44014404 117.53625977 134.88028809 117.29736328 134.3034668 C116.24320638 131.76342806 115.18416133 129.22545579 114.125 126.6875 C113.57779297 125.36588867 113.57779297 125.36588867 113.01953125 124.01757812 C112.66503906 123.17001953 112.31054688 122.32246094 111.9453125 121.44921875 C111.62062988 120.66893311 111.29594727 119.88864746 110.96142578 119.0847168 C109.96057995 116.77267022 109.96057995 116.77267022 108 114 C102.97020124 114.63198249 98.15388155 115.64681651 93.25 116.9375 C91.12825476 117.47192274 89.0051651 118.00071898 86.88183594 118.52880859 C85.34866778 118.91269735 83.81840344 119.30816855 82.2890625 119.70703125 C65.11190576 123.57050178 45.94127119 122.22254729 30.5 113.625 C28.6468439 112.44729332 26.81072608 111.24195476 25 110 C24.01966797 109.34257812 24.01966797 109.34257812 23.01953125 108.671875 C6.70322015 96.27595901 1.05810569 74.06920982 -2 55 C-2.29197266 53.36998047 -2.29197266 53.36998047 -2.58984375 51.70703125 C-3.1967819 46.22146643 -3.19096648 40.76516453 -3.1875 35.25 C-3.18741943 34.06092041 -3.18733887 32.87184082 -3.18725586 31.64672852 C-3.02356454 6.04712908 -3.02356454 6.04712908 0 0 Z " fill="#FEFEFC" transform="translate(193,207)"/>
</svg>
