<svg width="500" height="230" viewBox="0 0 500 230" fill="none" xmlns="http://www.w3.org/2000/svg">
<rect width="500" height="230" fill="#0D5891"/>
<path d="M352.956 47.4927C352.282 47.1332 351.524 46.9464 350.756 46.9464H189.64C189.24 46.9464 188.913 46.6186 188.906 46.2098L188.892 44.6485C188.892 44.215 189.107 44 189.538 44H347.422C351.268 44 354.079 44.5745 355.862 45.7234C359.694 48.2293 360.968 51.9298 360.968 56.7195C360.996 82.821 361.007 108.919 360.996 135.021C360.996 139.493 359.262 142.725 355.799 144.72C353.784 145.869 350.535 146.443 346.053 146.443C281.991 146.432 217.925 146.44 153.856 146.457C144.598 146.461 139.05 143.793 139.036 133.946C138.994 109.388 138.99 84.9321 139.018 60.5822C139.018 60.0817 139.264 59.8315 139.752 59.8315H141.218C141.699 59.8315 141.938 60.0712 141.938 60.554C141.948 84.3048 141.941 108.218 141.924 132.296C141.924 139.193 144.096 143.483 151.36 143.483C216.82 143.504 282.282 143.507 347.741 143.497C354.272 143.483 358.045 140.268 358.045 133.752C358.066 108.39 358.069 83.0254 358.059 57.664C358.059 52.8004 357.178 49.6883 352.953 47.4927H352.956Z" fill="white"/>
<path d="M188.851 59.6377C188.851 59.3839 189.054 59.1795 189.307 59.1795L219.529 59.1196C230.166 59.102 238.799 67.0847 238.816 76.9529L238.876 115.252C238.89 125.117 230.281 133.128 219.648 133.146L189.426 133.205C189.173 133.205 188.97 133.001 188.97 132.747L188.854 59.6341L188.851 59.6377ZM205.45 70.5315L205.362 122.033C205.362 122.276 205.558 122.474 205.8 122.474L215.356 122.488C219.192 122.495 222.305 119.302 222.312 115.355L222.371 77.2666C222.378 73.3193 219.28 70.1121 215.444 70.1015L205.888 70.0874C205.646 70.0874 205.45 70.2848 205.45 70.528V70.5315Z" fill="#00AEEF"/>
<path d="M245.431 79.1098L245.403 68.4979C245.403 68.3323 245.484 68.1772 245.624 68.0856L256.675 60.6703C256.752 60.6139 256.843 60.5857 256.938 60.5822H268.049C268.315 60.5822 268.533 60.8007 268.533 61.0686V133.783C268.533 134.051 268.315 134.27 268.049 134.27L257.275 134.284C257.008 134.284 256.791 134.065 256.791 133.798V73.1431C256.798 72.8752 256.591 72.6497 256.32 72.6426C256.215 72.6426 256.113 72.6708 256.026 72.7307L246.179 79.5116C245.954 79.6596 245.656 79.5962 245.508 79.3706C245.459 79.2931 245.431 79.205 245.431 79.1134V79.1098Z" fill="white"/>
<path d="M289.445 72.0082V81.591C289.445 81.8377 289.322 81.9611 289.076 81.9611H278.068C277.864 81.9611 277.699 81.7954 277.699 81.591V61.3223C277.699 60.8324 277.945 60.5857 278.433 60.5857H322.45C322.938 60.5857 323.19 60.8324 323.197 61.3223C323.197 65.7454 323.783 69.6786 322.008 73.8797C313.494 94.0356 305.012 114.047 296.558 133.917C296.471 134.132 296.26 134.27 296.028 134.27L283.89 134.344C283.679 134.344 283.507 134.171 283.507 133.953C283.507 133.9 283.518 133.847 283.535 133.798L309.676 71.9624C309.862 71.5007 309.711 71.2681 309.22 71.2681H290.168C289.68 71.2681 289.434 71.5148 289.434 72.0047L289.445 72.0082Z" fill="white"/>
<path d="M249.523 177.909C249.555 182.233 246.087 185.761 241.785 185.789L239.202 185.807C234.896 185.839 231.383 182.356 231.355 178.036L231.239 161.408C231.208 157.083 234.675 153.555 238.977 153.527L241.56 153.509C245.866 153.478 249.379 156.96 249.407 161.281L249.523 177.909ZM244.312 161.513C244.315 159.42 242.631 157.721 240.546 157.718H240.223C238.139 157.714 236.447 159.406 236.444 161.499L236.416 177.859C236.412 179.953 238.097 181.652 240.181 181.655H240.504C242.589 181.659 244.28 179.967 244.284 177.873L244.312 161.513Z" fill="#FFC423"/>
<path d="M258.566 159.004C255.998 167.54 269.912 168.481 270.337 177.489C270.881 188.986 250.832 189.162 253.078 176.016C253.155 175.544 253.436 175.308 253.913 175.308L256.38 175.294C256.889 175.294 257.201 175.544 257.321 176.044C258.128 179.361 258.949 183.34 263.63 180.88C264.052 180.665 264.35 180.33 264.525 179.879C267.371 172.421 254.661 170.578 253.078 163.001C250.481 150.693 271.484 149.925 270.119 161.88C270.059 162.401 269.772 162.662 269.252 162.662H266.669C266.003 162.662 265.543 162.359 265.29 161.749C264.957 160.953 264.81 160.118 264.852 159.244C264.88 158.662 264.616 158.299 264.059 158.155C262.521 157.742 260.981 157.742 259.437 158.155C258.988 158.271 258.696 158.556 258.57 159.011L258.566 159.004Z" fill="#FFC423"/>
<path d="M192.153 171.843L190.026 171.871C189.623 171.878 189.286 171.561 189.279 171.163C189.279 171.159 189.279 171.152 189.279 171.149V168.922C189.279 168.432 189.524 168.185 190.012 168.185H196.589C197.059 168.185 197.297 168.421 197.308 168.893C197.455 176.013 199.084 184.827 190.012 185.373C183.26 185.786 180.488 183.308 180.47 176.383C180.46 171.047 180.467 165.739 180.484 160.463C180.512 151.412 199.343 150.175 197.259 164.192C197.231 164.4 197.111 164.502 196.908 164.502L193.283 164.488C193.097 164.488 192.946 164.336 192.942 164.15C192.942 164.139 192.942 164.128 192.942 164.118C193.069 162.419 192.883 160.752 192.384 159.12C192.128 158.271 191.451 157.615 190.595 157.397C185.738 156.142 184.931 159.55 184.885 163.483C184.825 168.721 184.836 173.909 184.913 179.051C184.938 180.622 186.215 181.877 187.773 181.852C187.805 181.852 187.833 181.852 187.864 181.852L190.816 181.736C191.384 181.708 191.883 181.338 192.079 180.792C193.02 178.099 193.269 175.315 192.827 172.435C192.767 172.041 192.542 171.847 192.153 171.847V171.843Z" fill="#00AEEF"/>
<path d="M215.841 174.067L215.9 184.443C215.9 185.102 215.574 185.426 214.918 185.416L211.689 185.37C211.17 185.363 210.749 184.943 210.749 184.425L210.735 154.563C210.735 154.26 210.977 154.01 211.279 154.003C214.802 153.957 223.726 153.016 226.204 155.772C229.197 159.074 229.404 167.343 226.411 170.881C224.266 173.415 219.704 173.313 216.518 173.373C216.069 173.383 215.844 173.612 215.844 174.067H215.841ZM215.886 158.222L215.827 168.745C215.827 168.981 216.016 169.172 216.251 169.172L219.922 169.186C221.827 169.2 223.386 167.18 223.4 164.671C223.4 164.668 223.4 164.664 223.4 164.661V162.363C223.41 159.86 221.88 157.823 219.982 157.809L216.311 157.795C216.076 157.795 215.886 157.985 215.886 158.222Z" fill="#FFC423"/>
<path d="M284.676 158.324V184.901C284.676 185.162 284.465 185.373 284.205 185.373H279.815C279.556 185.373 279.345 185.162 279.345 184.901L279.373 158.324C279.373 158.063 279.163 157.851 278.903 157.851L272.958 157.866C272.709 157.866 272.505 157.672 272.488 157.425L272.312 154.535C272.295 154.274 272.491 154.052 272.751 154.035C272.762 154.035 272.772 154.035 272.783 154.035L290.82 153.975C291.08 153.975 291.291 154.186 291.291 154.447C291.291 154.45 291.291 154.457 291.291 154.461L291.245 157.407C291.245 157.668 291.035 157.88 290.775 157.88C290.771 157.88 290.764 157.88 290.761 157.88L285.139 157.851C284.879 157.851 284.669 158.063 284.669 158.324H284.676Z" fill="#FFC423"/>
<path d="M309.276 169.101C312.29 171.579 313.389 174.596 312.578 178.152C310.508 187.202 301.805 184.873 295.407 185.183C294.74 185.211 294.411 184.894 294.411 184.224L294.396 154.891C294.396 154.32 294.684 154.031 295.263 154.02C299.331 153.975 305.493 153.182 308.518 155.363C312.319 158.105 312.378 164.724 309.209 168.129C308.886 168.481 308.911 168.805 309.283 169.101H309.276ZM299.134 157.03V167.202C299.134 167.431 299.317 167.614 299.545 167.614H301.57C304.633 167.614 307.118 165.26 307.118 162.352V161.88C307.118 158.972 304.633 156.618 301.57 156.618H299.545C299.317 156.618 299.134 156.801 299.134 157.03ZM299.148 170.546L299.12 181.662C299.113 181.898 299.295 182.096 299.531 182.103C299.534 182.103 299.541 182.103 299.545 182.103H301.805C305.054 182.11 307.697 179.868 307.704 177.091V175.174C307.711 172.397 305.082 170.141 301.833 170.134H299.573C299.345 170.134 299.155 170.317 299.148 170.546Z" fill="white"/>
<path d="M347.201 153.816L349.651 153.83C349.91 153.837 350.114 154.056 350.107 154.317C350.107 154.419 350.068 154.517 350.005 154.598L340.084 166.775C339.944 166.944 339.937 167.188 340.07 167.364L352.928 184.358C353.083 184.566 353.037 184.862 352.83 185.017C352.753 185.074 352.658 185.105 352.563 185.109L347.836 185.155C347.685 185.155 347.545 185.084 347.454 184.964L337.635 171.815C337.484 171.604 337.189 171.554 336.978 171.706C336.856 171.794 336.782 171.942 336.782 172.093V184.668C336.782 184.929 336.571 185.141 336.312 185.141L332.848 185.127C332.588 185.127 332.378 184.915 332.378 184.654L332.35 154.482C332.35 154.221 332.56 154.01 332.82 154.01L336.312 153.982C336.571 153.982 336.782 154.193 336.782 154.454L336.754 164.904C336.754 165.165 336.964 165.376 337.224 165.376C337.368 165.376 337.501 165.313 337.593 165.2L346.84 153.996C346.927 153.883 347.064 153.82 347.208 153.82L347.201 153.816Z" fill="white"/>
<path d="M149.308 154.831C149.308 154.44 149.623 154.123 150.013 154.123L159.435 154.137C163.601 154.144 166.973 157.601 166.966 161.859L166.938 177.454C166.931 181.711 163.545 185.155 159.379 185.148L149.957 185.134C149.567 185.134 149.251 184.816 149.251 184.425L149.311 154.828L149.308 154.831ZM153.712 157.823L153.624 181.408C153.624 181.627 153.803 181.807 154.021 181.807L158.042 181.821C160.481 181.828 162.464 179.452 162.475 176.513L162.534 162.775C162.545 159.836 160.572 157.446 158.134 157.439L154.112 157.425C153.894 157.425 153.715 157.605 153.715 157.823H153.712Z" fill="#00AEEF"/>
<path d="M175.698 184.591C175.698 184.89 175.455 185.137 175.154 185.137H171.837C171.539 185.137 171.293 184.894 171.293 184.591V154.729C171.293 154.429 171.536 154.183 171.837 154.183H175.154C175.452 154.183 175.698 154.426 175.698 154.729V184.591Z" fill="#00AEEF"/>
<path d="M206.506 184.591C206.506 184.89 206.264 185.137 205.962 185.137H202.291C201.993 185.137 201.747 184.894 201.747 184.591V154.729C201.747 154.429 201.989 154.183 202.291 154.183H205.962C206.26 154.183 206.506 154.426 206.506 154.729V184.591Z" fill="#00AEEF"/>
<path d="M318.92 163.205C320.309 161.742 322.001 160.745 323.997 160.213C324.429 160.1 324.885 160.163 325.261 160.389C330.472 163.455 328.914 175.572 328.872 184.637C328.872 184.961 328.714 185.123 328.402 185.123L325.128 185.137C324.942 185.137 324.85 185.046 324.85 184.859L324.864 166.803C324.861 165.647 323.924 164.713 322.773 164.717C322.583 164.717 322.39 164.745 322.208 164.798L321.313 165.062C319.604 165.552 318.428 167.124 318.435 168.911L318.449 184.757C318.449 185.003 318.326 185.127 318.081 185.127H314.852C314.666 185.127 314.575 185.038 314.575 184.862L314.621 162.31C314.621 161.549 315.136 160.889 315.87 160.717C318.119 160.167 318.951 160.893 318.365 162.898C318.112 163.762 318.295 163.868 318.923 163.209L318.92 163.205Z" fill="white"/>
</svg>
