<?xml version="1.0" standalone="no"?>
<!DOCTYPE svg PUBLIC "-//W3C//DTD SVG 20010904//EN"
 "http://www.w3.org/TR/2001/REC-SVG-20010904/DTD/svg10.dtd">
<svg version="1.0" xmlns="http://www.w3.org/2000/svg"
 width="612.000000pt" height="510.000000pt" viewBox="0 0 612.000000 510.000000"
 preserveAspectRatio="xMidYMid meet">

<g transform="translate(0.000000,510.000000) scale(0.100000,-0.100000)"
fill="#000000" stroke="none">
<path d="M940 3750 c-20 -20 -20 -33 -20 -890 0 -857 0 -870 20 -890 18 -18
33 -20 195 -20 l175 0 61 65 c34 36 69 65 77 65 11 0 12 3 3 14 -10 12 -8 13
10 9 15 -4 26 0 36 13 7 10 19 19 26 20 32 2 77 17 77 26 0 5 4 7 9 4 4 -3 43
1 85 8 42 7 76 9 76 5 0 -5 18 -9 41 -9 22 0 69 -11 104 -25 34 -14 71 -23 81
-19 13 4 15 3 6 -3 -9 -7 -4 -15 20 -33 17 -13 37 -23 44 -23 7 0 12 -3 11 -7
-4 -13 70 -90 97 -100 19 -7 250 -10 713 -10 665 1 684 1 703 20 20 20 20 39
20 890 0 857 0 870 -20 890 -20 20 -33 20 -1325 20 -1292 0 -1305 0 -1325 -20z
m2094 -236 c19 -18 21 -65 4 -82 -8 -8 -46 -12 -105 -12 l-93 0 0 -60 0 -59
88 -3 87 -3 3 -39 c4 -43 -11 -59 -42 -50 -11 4 -16 2 -12 -4 3 -6 -2 -9 -11
-7 -55 11 -93 13 -88 5 3 -6 -1 -7 -9 -4 -14 5 -16 -5 -16 -65 l0 -70 103 -3
102 -3 3 -39 c2 -24 -2 -42 -10 -47 -18 -12 -279 -11 -298 1 -13 8 -16 50 -18
252 -2 150 1 254 7 270 l10 27 138 4 c76 1 139 4 140 5 1 1 9 -5 17 -14z
m-1216 -38 c2 -24 -2 -42 -10 -47 -7 -5 -52 -9 -100 -9 l-88 0 0 -65 0 -65 90
0 c86 0 90 -1 96 -24 3 -13 4 -35 2 -47 -3 -23 -7 -24 -95 -27 l-92 -3 -3
-112 -3 -112 -44 -3 c-24 -2 -48 1 -53 6 -14 14 -10 522 4 539 8 10 43 13 152
11 l141 -3 3 -39z m313 34 c20 -6 50 -23 67 -40 55 -52 53 -174 -3 -219 l-25
-19 24 -46 c13 -24 26 -43 29 -40 3 3 5 -1 4 -8 -1 -31 4 -49 12 -44 5 3 8 0
8 -7 -1 -6 5 -31 12 -54 19 -59 11 -73 -42 -73 -25 0 -49 6 -54 13 -6 6 -23
44 -38 84 -16 41 -32 70 -38 66 -6 -4 -7 -1 -2 6 11 19 -34 61 -66 61 l-28 0
-3 -112 -3 -113 -29 -3 c-15 -2 -39 -1 -52 2 l-24 6 0 263 c0 191 3 266 12
275 15 15 187 16 239 2z m513 -6 c11 -30 6 -72 -10 -78 -9 -3 -56 -6 -105 -6
l-90 0 3 -57 3 -58 82 -3 c75 -3 83 -5 98 -29 9 -14 12 -23 7 -19 -6 4 -12 -5
-14 -21 -2 -22 -8 -28 -25 -27 -13 1 -23 -2 -23 -6 0 -3 -24 -3 -52 0 -77 10
-79 8 -76 -69 l3 -66 101 -3 102 -3 6 -30 c3 -17 1 -39 -4 -50 -10 -17 -23
-19 -153 -19 -78 0 -148 4 -155 9 -20 12 -20 530 -1 542 8 5 78 9 155 9 120 0
143 -2 148 -16z m-777 -506 c-3 -8 -6 -5 -6 6 -1 11 2 17 5 13 3 -3 4 -12 1
-19z m1377 -153 c-4 -10 0 -15 14 -15 14 0 26 -12 38 -40 10 -21 21 -37 26
-34 4 3 5 -1 2 -9 -3 -8 4 -31 15 -52 l20 -37 15 30 c9 17 25 55 36 85 17 46
25 55 49 59 16 2 37 1 47 -3 11 -4 14 -8 8 -8 -15 -1 -55 -81 -47 -93 4 -7 1
-8 -7 -3 -10 6 -12 4 -7 -9 4 -9 3 -15 -2 -12 -11 7 -33 -43 -25 -57 4 -7 4
-9 -1 -5 -19 18 -34 -30 -35 -109 0 -84 -6 -95 -42 -85 -14 3 -18 16 -19 51
-1 25 -1 50 0 55 4 22 -11 66 -21 60 -6 -4 -8 -3 -5 3 9 14 -47 125 -58 116
-4 -5 -5 -3 -2 4 9 15 -3 44 -15 37 -5 -4 -7 -15 -5 -26 3 -11 3 -17 -1 -13
-13 13 -7 90 8 108 18 21 21 22 14 2z m-1420 -15 l26 -10 0 -159 0 -160 67 -3
c61 -3 67 -5 68 -25 2 -22 -1 -23 -102 -23 l-103 0 0 188 c0 164 3 202 16 202
1 0 14 -4 28 -10z m435 -26 c6 -14 11 -32 11 -40 0 -8 4 -12 10 -9 5 3 7 0 4
-8 -7 -18 66 -241 76 -230 8 9 52 139 55 163 1 8 5 22 9 30 3 8 14 39 23 69
16 48 21 55 46 56 15 0 27 -4 27 -10 0 -5 -14 -48 -30 -95 -17 -47 -28 -91
-25 -98 3 -7 1 -11 -3 -8 -4 2 -20 -36 -36 -85 l-29 -89 -49 0 c-42 0 -48 3
-48 21 0 11 -4 18 -9 15 -5 -4 -7 3 -4 14 3 11 1 20 -5 20 -5 0 -10 10 -10 23
-1 26 -66 219 -73 213 -2 -2 -5 15 -6 38 -3 42 -2 42 26 38 18 -2 33 -13 40
-28z m863 4 c15 -10 29 -31 33 -48 8 -36 -10 -96 -31 -104 -8 -3 -13 -10 -10
-14 3 -5 -7 -7 -22 -4 l-27 4 32 -28 c25 -23 90 -151 80 -160 -1 -1 -18 -4
-37 -6 -23 -2 -35 1 -36 10 -1 6 -2 17 -3 23 0 5 -5 7 -11 4 -5 -3 -7 0 -4 9
7 18 -30 91 -56 109 -11 8 -32 12 -45 9 -24 -4 -25 -7 -25 -83 l0 -79 -30 0
-30 0 0 188 c0 104 2 191 4 193 2 2 47 2 98 -1 65 -3 102 -10 120 -22z m-1805
-3 c71 -42 94 -165 49 -261 -31 -67 -70 -85 -193 -92 l-92 -5 -3 188 c-2 102
-1 189 2 192 3 3 50 3 105 1 76 -3 108 -8 132 -23z m373 5 c0 -17 -7 -20 -50
-21 -101 -2 -95 1 -100 -49 -8 -65 -4 -72 44 -70 73 3 83 1 89 -20 5 -19 0
-20 -63 -20 l-68 0 -4 -55 c-1 -30 -1 -60 0 -65 2 -6 37 -10 78 -10 72 0 74
-1 74 -25 l0 -25 -110 0 -111 0 1 190 1 190 110 0 c102 0 109 -1 109 -20z
m422 -170 l-3 -190 -29 0 -30 0 0 190 0 190 33 0 32 0 -3 -190z m704 179 c12
-20 -10 -28 -86 -31 l-75 -3 0 -55 0 -55 63 0 c52 0 63 -3 68 -18 8 -26 4 -28
-67 -30 l-64 -2 0 -60 0 -60 78 -3 c74 -3 78 -4 75 -25 -3 -21 -8 -22 -106
-25 -76 -2 -103 1 -107 10 -2 7 -6 93 -7 191 l-3 177 112 0 c70 0 114 -4 119
-11z"/>
<path d="M1992 3358 c3 -57 5 -63 27 -66 54 -8 101 21 101 64 0 39 -33 64 -85
64 l-46 0 3 -62z"/>
<path d="M2960 2725 l0 -65 34 0 c50 0 89 17 82 36 -3 8 -2 12 4 9 6 -4 10 7
10 24 0 39 -32 61 -87 61 l-43 0 0 -65z"/>
<path d="M1140 2646 l0 -146 50 0 c98 0 136 52 131 183 -1 16 -14 42 -33 63
-28 30 -41 36 -90 41 l-58 6 0 -147z"/>
<path d="M3707 3492 c-16 -17 -17 -79 -17 -808 0 -434 0 -795 0 -801 0 -10
-152 -13 -726 -13 -589 0 -728 -2 -739 -13 -11 -11 -11 -23 1 -67 8 -30 14
-66 14 -81 0 -14 8 -33 18 -42 17 -15 83 -17 755 -14 723 2 736 2 751 22 9 11
15 29 14 40 0 11 3 38 7 60 5 22 9 42 10 45 0 3 7 15 14 28 7 13 10 30 7 38
-3 8 -2 12 4 9 11 -7 31 28 27 47 -2 7 -2 10 0 6 6 -10 89 94 85 105 -1 5 2 5
8 2 6 -4 17 0 23 8 20 25 105 66 178 87 173 47 348 7 475 -111 44 -40 98 -113
108 -147 4 -12 12 -20 17 -16 6 3 9 0 8 -7 -1 -8 2 -32 8 -54 6 -22 14 -61 18
-87 3 -25 12 -51 20 -58 9 -8 108 -11 332 -10 397 0 367 -12 371 156 1 65 0
129 -3 141 -6 26 -56 56 -78 47 -8 -3 -17 -1 -21 4 -3 5 -7 73 -10 153 -6 163
-19 264 -37 285 -6 8 -8 14 -4 14 13 0 -38 75 -73 106 -44 40 -130 87 -144 78
-7 -4 -8 -3 -4 4 11 18 -65 166 -76 150 -6 -9 -7 -6 -3 8 3 14 -1 28 -10 38
-9 9 -14 16 -11 16 9 0 -53 121 -72 143 -8 9 -12 17 -8 17 7 0 -39 93 -68 135
-12 17 -20 31 -18 33 4 4 -59 125 -73 142 -13 14 -15 20 -15 38 0 14 -41 57
-51 55 -5 -2 -8 2 -6 9 1 6 -18 25 -43 42 l-45 31 -451 3 c-430 3 -451 2 -467
-16z m887 -164 c-7 -12 21 -49 31 -40 5 4 5 2 2 -5 -8 -13 76 -187 85 -178 3
4 9 1 14 -6 4 -8 3 -10 -4 -5 -17 10 -16 9 26 -77 21 -43 41 -74 46 -70 4 4 6
3 4 -3 -5 -16 44 -114 55 -107 5 3 6 -4 2 -17 -5 -17 -4 -20 5 -15 8 5 11 3 8
-6 -3 -8 5 -30 17 -49 12 -19 25 -45 29 -57 5 -14 16 -24 29 -24 l22 -2 -22
-4 c-15 -3 -20 -9 -17 -21 4 -12 3 -13 -3 -5 -7 10 -129 13 -529 15 l-519 3 0
335 0 335 350 5 c193 3 355 5 362 6 7 0 10 -3 7 -8z m-366 -837 c8 -5 12 -21
10 -37 l-3 -29 -140 -5 c-174 -6 -183 -5 -191 26 -12 48 5 54 165 54 80 0 152
-4 159 -9z m1125 -303 c2 -7 4 -44 3 -83 l-1 -70 -40 -1 c-81 -1 -123 36 -140
123 l-6 32 83 4 c46 1 86 4 89 5 4 1 9 -4 12 -10z"/>
<path d="M4718 2848 c-12 -22 -68 -149 -68 -155 0 -2 13 -3 29 -3 27 0 33 7
64 73 25 52 32 77 25 90 -12 24 -35 21 -50 -5z"/>
<path d="M1619 2075 c-113 -31 -233 -144 -280 -265 -33 -82 -30 -304 3 -284 6
4 8 3 4 -4 -13 -21 28 -90 93 -158 95 -98 248 -149 375 -124 34 7 70 17 81 23
11 6 25 12 32 13 23 4 102 65 138 106 108 127 135 306 68 460 -9 21 -19 36
-22 33 -4 -2 -13 6 -21 18 -12 21 -12 21 6 7 10 -8 7 -1 -7 15 -15 17 -35 40
-45 53 -19 23 -40 31 -28 10 5 -9 3 -9 -9 1 -9 7 -14 17 -12 22 6 9 -30 35
-55 41 -8 2 -21 9 -29 16 -8 8 -24 11 -40 7 -17 -3 -21 -2 -13 3 34 23 -162
29 -239 7z m326 -93 c-3 -3 -11 0 -18 7 -9 10 -8 11 6 5 10 -3 15 -9 12 -12z
m-181 -104 c-4 -7 -3 -8 4 -4 14 9 80 -19 109 -46 12 -12 27 -17 34 -13 8 5
10 4 5 -3 -4 -6 1 -23 10 -37 27 -41 35 -118 19 -173 -16 -53 -67 -116 -104
-127 -13 -4 -19 -10 -13 -14 5 -3 -21 -7 -59 -9 -86 -3 -138 18 -191 76 -41
45 -55 102 -44 179 11 80 77 146 168 168 70 17 70 17 62 3z"/>
<path d="M4178 2076 c-15 -8 -29 -11 -32 -8 -7 6 -89 -33 -128 -61 -15 -11
-24 -25 -21 -30 3 -6 1 -7 -5 -3 -15 9 -67 -57 -105 -133 -27 -56 -32 -77 -35
-161 -4 -83 -1 -104 17 -145 12 -26 21 -52 21 -56 0 -5 12 -28 26 -51 21 -32
28 -38 36 -27 8 11 9 11 5 -2 -7 -22 59 -82 131 -118 126 -63 249 -63 378 -1
35 18 83 49 106 70 37 35 40 41 28 57 -11 14 -11 16 -1 6 11 -9 17 -9 26 1 22
22 46 76 39 88 -4 6 -3 8 3 5 19 -12 36 76 35 178 0 77 -28 166 -62 203 -12
12 -17 22 -13 22 4 0 -19 25 -50 55 -32 31 -62 53 -67 50 -6 -4 -9 -3 -8 2 2
4 0 8 -3 8 -4 0 -15 7 -25 16 -51 45 -235 66 -296 35z m408 -148 c0 -10 -1
-18 -3 -18 -1 0 -7 8 -12 18 -7 13 -6 19 2 19 7 0 13 -9 13 -19z m-210 -76
c22 -11 46 -28 53 -36 7 -9 18 -13 24 -9 5 3 7 2 4 -4 -4 -6 2 -29 13 -51 24
-49 26 -119 5 -168 -14 -34 -61 -98 -74 -100 -3 0 -24 -9 -45 -18 -29 -13 -54
-16 -95 -12 -91 10 -100 11 -96 15 2 2 -10 15 -27 29 -35 29 -78 114 -78 153
0 46 29 124 59 157 16 17 34 32 38 32 4 0 19 9 32 19 34 26 131 22 187 -7z
m-498 -133 c-3 -8 -7 -3 -11 10 -4 17 -3 21 5 13 5 -5 8 -16 6 -23z m169 -81
c-3 -8 -6 -5 -6 6 -1 11 2 17 5 13 3 -3 4 -12 1 -19z m-170 -50 c-3 -8 -6 -5
-6 6 -1 11 2 17 5 13 3 -3 4 -12 1 -19z"/>
<path d="M924 1845 c-13 -20 -16 -40 -11 -92 7 -97 17 -103 172 -103 132 0
155 8 155 52 0 11 7 47 15 80 23 88 23 88 -161 88 -153 0 -154 0 -170 -25z"/>
</g>
</svg>
