<?xml version="1.0" encoding="UTF-8"?>
<svg version="1.1" xmlns="http://www.w3.org/2000/svg" width="512" height="512">
<path d="M0 0 C2.73149373 1.13179446 5.10932403 2.67269112 7.5625 4.3125 C8.25504883 4.76181885 8.94759766 5.2111377 9.66113281 5.67407227 C20.33030701 12.71421768 30.02742016 20.78613886 39.3359375 29.5234375 C41.51160937 31.5459829 43.72164473 33.47168264 46 35.375 C89.61573687 73.61713479 112.47754011 133.65632828 119 190 C119.09571289 190.75941895 119.19142578 191.51883789 119.29003906 192.30126953 C120.29044966 201.364129 120.22186781 210.47820392 120.24023438 219.58496094 C120.24988541 222.46579479 120.28096346 225.34589682 120.3125 228.2265625 C120.40245156 243.83696502 119.043666 259.16558246 114.3125 274.125 C113.93013184 275.35609497 113.93013184 275.35609497 113.54003906 276.61206055 C107.37935537 295.69950738 97.05542434 311.88319287 84 327 C83.32066406 327.80179687 82.64132813 328.60359375 81.94140625 329.4296875 C78.26380579 333.68796172 74.45385896 337.52784245 70.15234375 341.15234375 C68.65262706 342.43975935 67.18843067 343.76922659 65.75390625 345.12890625 C53.10158176 357.1101246 38.6812432 367.21679443 24.06201172 376.64892578 C21.65728012 378.2245574 19.28470049 379.84409512 16.91015625 381.46484375 C15.12783624 382.66440738 13.34528585 383.8636288 11.5625 385.0625 C10.73363281 385.63564941 9.90476563 386.20879883 9.05078125 386.79931641 C-0.22479565 392.96869709 -0.22479565 392.96869709 -6 392 C-9.92769037 390.39362295 -13.42703113 388.27647209 -17 386 C-18.29671631 385.18305664 -18.29671631 385.18305664 -19.61962891 384.34960938 C-22.20754941 382.6826623 -24.76329135 380.97550356 -27.3125 379.25 C-28.22330322 378.63729248 -29.13410645 378.02458496 -30.07250977 377.39331055 C-45.61224388 366.90031754 -60.79404726 356.05334202 -74.546875 343.265625 C-76.69558551 341.28114714 -78.88880045 339.38404214 -81.125 337.5 C-101.60594788 319.55320591 -115.7401399 294.44845066 -122.75 268.375 C-122.94883789 267.63596436 -123.14767578 266.89692871 -123.35253906 266.13549805 C-123.9556176 263.76585456 -124.49242898 261.39194289 -125 259 C-125.18908936 258.10990234 -125.37817871 257.21980469 -125.57299805 256.30273438 C-127.54388846 245.52209552 -127.35253229 234.66883343 -127.3125 223.75 C-127.31067719 222.72565857 -127.30885437 221.70131714 -127.30697632 220.64593506 C-127.26074446 205.2352139 -126.78297992 190.19603928 -124 175 C-123.73461426 173.5154834 -123.73461426 173.5154834 -123.46386719 172.00097656 C-118.29563814 143.78548085 -109.55890402 117.31589205 -96 92 C-95.38769531 90.84628906 -94.77539062 89.69257813 -94.14453125 88.50390625 C-86.07250881 73.84111909 -76.13582506 60.4662284 -65 48 C-64.52062988 47.45891602 -64.04125977 46.91783203 -63.54736328 46.36035156 C-20.72198732 -1.7881918 -20.72198732 -1.7881918 0 0 Z M-4 23 C-13.27335849 29.37014899 -21.98506269 36.13388955 -30.40869141 43.59228516 C-31.88343907 44.89688703 -33.36901208 46.1892239 -34.85546875 47.48046875 C-40.0172921 52.0175631 -44.59333485 56.73749493 -49 62 C-50.21429688 63.36511719 -50.21429688 63.36511719 -51.453125 64.7578125 C-81.00482442 98.20638025 -97.01646488 140.38684276 -104 184 C-104.18900879 185.17151611 -104.18900879 185.17151611 -104.38183594 186.36669922 C-110.53108054 226.15431898 -107.86472108 268.12029043 -84.0625 301.8125 C-80.62294219 306.36246624 -76.89338731 310.60212022 -73.0234375 314.7890625 C-71.41489991 316.54665377 -69.91074626 318.31875138 -68.4375 320.1875 C-65.25605316 323.8584002 -61.70411048 326.86900107 -58 330 C-56.62714844 331.20462891 -56.62714844 331.20462891 -55.2265625 332.43359375 C-36.01633497 350.88565625 -36.01633497 350.88565625 -14 362 C-12.67972101 352.9268155 -11.80650319 343.84088646 -11.3125 334.6875 C-11.25750776 333.67331875 -11.25750776 333.67331875 -11.20140457 332.63864899 C-10.38180707 315.48585633 -11.76905855 301.68794162 -23.5390625 288.51171875 C-33.05099039 278.12670288 -44.05637553 268.96854794 -55.24729919 260.46920776 C-57.34183143 258.71345857 -57.91948827 257.68368977 -58.23828125 254.9765625 C-58.43995749 248.58660999 -58.43995749 248.58660999 -56.125 245.5 C-52.54600342 242.97364947 -50.40355896 242.57658087 -46 243 C-41.33488869 245.72839915 -37.71624829 249.02552974 -33.98046875 252.859375 C-33.43642899 253.40861633 -32.89238922 253.95785767 -32.3318634 254.52374268 C-30.61219229 256.26108657 -28.89943556 258.00503596 -27.1875 259.75 C-25.45679925 261.50830172 -23.72465015 263.26511531 -21.98957825 265.019104 C-20.91396974 266.10699594 -19.84104532 267.19754929 -18.77104187 268.29095459 C-17.53275144 269.54605556 -16.26895491 270.77591052 -15 272 C-14.67 272 -14.34 272 -14 272 C-12.99831867 261.69926344 -12.32042001 251.40392301 -11.9375 241.0625 C-11.90939869 240.30655548 -11.88129738 239.55061096 -11.85234451 238.77175903 C-11.27765206 221.25254335 -11.09945905 205.64032132 -23.49623108 191.92359924 C-29.70148129 185.68639498 -36.59145795 180.15954537 -43.85717773 175.20898438 C-47 173 -47 173 -48 171 C-48.0952699 169.52331663 -48.12985959 168.04224543 -48.125 166.5625 C-48.12757812 165.78003906 -48.13015625 164.99757812 -48.1328125 164.19140625 C-48 162 -48 162 -47 159 C-42.36737307 156.79398717 -38.90841204 156.56132751 -34 158 C-31.02173001 160.02142155 -28.54480773 162.46398263 -26 165 C-25.53416504 165.46422363 -25.06833008 165.92844727 -24.58837891 166.40673828 C-22.58095641 168.41025656 -20.57409843 170.41349404 -18.59277344 172.44287109 C-17.4127293 173.64604511 -16.20853577 174.82544766 -15 176 C-14.67 176 -14.34 176 -14 176 C-13.99120064 174.9830883 -13.99120064 174.9830883 -13.98222351 173.94563293 C-13.91828421 166.88885465 -13.83386255 159.83253219 -13.73754883 152.77612305 C-13.70429675 150.14272064 -13.67626576 147.50924691 -13.65356445 144.87573242 C-13.62002471 141.09002289 -13.5677068 137.30496711 -13.51171875 133.51953125 C-13.50532883 132.34227982 -13.4989389 131.16502838 -13.49235535 129.95210266 C-13.47256119 128.85133896 -13.45276703 127.75057526 -13.43237305 126.61645508 C-13.42126999 125.65048904 -13.41016693 124.68452301 -13.39872742 123.68928528 C-12.92659083 120.50487931 -11.87578691 118.59593863 -10 116 C-6.55258453 114.27629226 -2.76964661 114.49693328 1 115 C3.50160818 116.87620613 4.61945652 118.23891303 6 121 C6.11931048 122.75590877 6.17719868 124.51614607 6.20532227 126.27587891 C6.2352401 127.92736435 6.2352401 127.92736435 6.26576233 129.61221313 C6.28247482 130.80494843 6.29918732 131.99768372 6.31640625 133.2265625 C6.33718735 134.44451508 6.35796844 135.66246765 6.37937927 136.91732788 C6.44492584 140.8198262 6.50378355 144.7223935 6.5625 148.625 C6.60568035 151.26563222 6.64929448 153.90625739 6.69335938 156.546875 C6.80061244 163.03117643 6.90236929 169.51554694 7 176 C8.10729237 175.06244721 9.21292339 174.12293213 10.31787109 173.18261719 C10.93375092 172.6596405 11.54963074 172.13666382 12.18417358 171.59783936 C15.79612219 168.41949941 19.03326074 164.87056324 22.3515625 161.390625 C24.93358018 159.05995418 26.67259168 157.90796926 30 157 C33.56502255 157.30732953 36.60833492 157.86944497 40 159 C41.3945931 163.1837793 41.74363199 166.63877948 41 171 C38.15644316 175.88531345 33.87533918 179.1909873 29.1842804 182.20819092 C19.89223577 188.27848087 11.03105966 195.34141918 7 206 C2.66084322 227.2118119 5.32581598 250.58571428 7 272 C11.22670978 268.45482968 15.27468671 264.83751596 19.13671875 260.890625 C20.04357422 259.97152344 20.95042969 259.05242187 21.88476562 258.10546875 C23.29530989 256.67000495 24.70416074 255.23294768 26.1105957 253.79345703 C27.48985055 252.3839752 28.87570295 250.98095898 30.26171875 249.578125 C31.07600342 248.74700195 31.89028809 247.91587891 32.72924805 247.05957031 C35.77664632 244.29558237 37.85164881 243.12216502 41.9375 242.6875 C45.40546033 243.0413735 47.22035395 243.93512008 50 246 C51.79578504 249.59157008 51.68581781 253.09585059 51 257 C47.58120853 262.34590033 42.6077459 266.27721076 37.56625366 270.0153656 C24.04320085 280.11473257 8.33423897 292.13310376 5.27832031 309.60595703 C3.11201699 326.84458247 4.8964936 344.85907202 7 362 C8.74207794 360.89652496 10.48348298 359.79198756 12.22460938 358.68701172 C13.19442749 358.07203827 14.16424561 357.45706482 15.16345215 356.82345581 C19.01023488 354.35057727 22.76905566 351.76847529 26.5 349.125 C27.22775635 348.6096167 27.9555127 348.0942334 28.70532227 347.56323242 C37.52651978 341.26209798 45.72411392 334.37535361 53.7109375 327.04296875 C55.29556305 325.62870397 56.92765853 324.26653505 58.59375 322.94921875 C62.21869174 320.01278055 65.03018668 316.58387247 68 313 C68.41056641 312.51241211 68.82113281 312.02482422 69.24414062 311.52246094 C87.71341909 289.47019654 99.03945423 263.11147098 99.203125 234.09375 C99.21013931 233.25988266 99.21715363 232.42601532 99.22438049 231.56687927 C99.24184072 228.87786424 99.24823668 226.18906972 99.25 223.5 C99.25067474 222.57994171 99.25134949 221.65988342 99.25204468 220.71194458 C99.23521864 206.26593012 98.58138513 192.24247846 96 178 C95.83902832 177.05060547 95.67805664 176.10121094 95.51220703 175.12304688 C89.10789741 137.93990818 74.28626295 102.71786672 51 73 C50.58733887 72.47019531 50.17467773 71.94039062 49.74951172 71.39453125 C34.72779681 52.33381749 16.7545148 35.60451255 -4 23 Z " fill="#007C4A" transform="translate(149,60)"/>
<path d="M0 0 C7.00686166 5.01511527 12.48110678 11.07533804 16 19 C16 19.99 16 20.98 16 22 C16.72361221 21.99333817 17.44722443 21.98667633 18.19276428 21.97981262 C25.03353996 21.91954132 31.87427561 21.87394444 38.71524906 21.84456348 C42.23174998 21.82895022 45.7480303 21.80779235 49.2644043 21.77368164 C53.31300905 21.73465665 57.36138439 21.72025499 61.41015625 21.70703125 C62.66458023 21.69154739 63.91900421 21.67606354 65.21144104 21.66011047 C71.53433026 21.65889702 76.50848428 21.69755537 82 25 C84.6790573 29.01858595 84.69610694 32.27641721 84 37 C82.20606332 39.87029869 81.01736724 41.49131638 78 43 C76.06028622 43.12005547 74.11656384 43.17733344 72.17333984 43.20532227 C70.34166763 43.2352401 70.34166763 43.2352401 68.47299194 43.26576233 C67.13564177 43.28274656 65.79829025 43.29962537 64.4609375 43.31640625 C63.09615447 43.33697603 61.73137782 43.35797251 60.36660767 43.37937927 C56.77292027 43.43459759 53.1791754 43.48400787 49.58538818 43.53222656 C45.91885254 43.58244337 42.25240044 43.63812849 38.5859375 43.69335938 C31.39069574 43.800938 24.19538454 43.90238357 17 44 C16.60312988 44.82129395 16.20625977 45.64258789 15.79736328 46.48876953 C15.26868652 47.56755371 14.74000977 48.64633789 14.1953125 49.7578125 C13.67469238 50.82660645 13.15407227 51.89540039 12.61767578 52.99658203 C7.83350437 61.87899626 -0.52284507 66.49241755 -9.921875 69.64453125 C-20.75376815 71.49735508 -31.06023108 70.24524691 -40.46484375 64.4921875 C-47.11001133 59.73774148 -51.72868173 53.47077801 -55 46 C-55 45.01 -55 44.02 -55 43 C-55.5902446 43.00888245 -56.1804892 43.01776489 -56.78862 43.0269165 C-62.9366995 43.11547008 -69.08459758 43.17576748 -75.2331543 43.21972656 C-77.52717448 43.23983106 -79.82114348 43.26711891 -82.11499023 43.30175781 C-85.41402826 43.35032559 -88.71238822 43.37298077 -92.01171875 43.390625 C-93.03585373 43.41127014 -94.05998871 43.43191528 -95.11515808 43.45318604 C-102.25088156 43.45543029 -102.25088156 43.45543029 -106.12426758 41.10058594 C-109.02013877 37.85757204 -109.39931493 35.47481578 -109.3515625 31.10546875 C-108.71660257 27.3027643 -106.78932244 25.59914137 -104 23 C-101.11505816 22.00067479 -98.45229885 21.87794298 -95.41503906 21.88647461 C-94.06409149 21.88658791 -94.06409149 21.88658791 -92.68585205 21.88670349 C-91.24033966 21.89444542 -91.24033966 21.89444542 -89.765625 21.90234375 C-88.77246277 21.9037587 -87.77930054 21.90517365 -86.75604248 21.90663147 C-83.58733088 21.91222412 -80.41869021 21.9247753 -77.25 21.9375 C-75.10026144 21.94251595 -72.95052177 21.94707869 -70.80078125 21.95117188 C-65.53383001 21.96219114 -60.26692007 21.978922 -55 22 C-54.69980957 20.895354 -54.39961914 19.79070801 -54.09033203 18.65258789 C-51.33969334 9.43800986 -43.8819138 3.45804823 -35.8671875 -1.25390625 C-25.27283255 -6.40743145 -10.15971953 -5.90792468 0 0 Z M-30.609375 20.33203125 C-34.6519826 24.83834973 -36.03212879 28.97588644 -35.9375 34.9375 C-35.18869417 39.48257728 -33.19659305 42.72544127 -30 46 C-25.27371142 49.32988514 -20.61640118 49.88062039 -15 49 C-10.16374897 47.2361908 -6.84340732 44.26511098 -4 40 C-2.33973539 35.01920617 -2.40096575 30.69726371 -4.125 25.8125 C-7.2097616 21.18535759 -10.54768165 18.2199805 -15.8125 16.5 C-21.20615728 15.42540161 -26.36828168 16.82180595 -30.609375 20.33203125 Z " fill="#00983D" transform="translate(406,333)"/>
<path d="M0 0 C1.546875 0.8353125 1.546875 0.8353125 3.125 1.6875 C8.91363524 6.34357617 14.32172085 11.96951722 17 19 C17 19.99 17 20.98 17 22 C18.31355469 21.97679687 19.62710938 21.95359375 20.98046875 21.9296875 C22.71614013 21.91092349 24.45181768 21.89272396 26.1875 21.875 C27.05181641 21.85824219 27.91613281 21.84148437 28.80664062 21.82421875 C34.53881226 21.78029406 38.46954148 22.29023073 43.3125 25.5625 C45.51375965 28.74209727 45.56135177 31.00517221 45.3984375 34.80859375 C44.81211554 38.03336452 43.35136429 39.78695125 41 42 C38.59458071 43.20270964 36.89633409 43.20316663 34.2109375 43.31640625 C33.26992188 43.35830078 32.32890625 43.40019531 31.359375 43.44335938 C30.37453125 43.48267578 29.3896875 43.52199219 28.375 43.5625 C27.38242187 43.60568359 26.38984375 43.64886719 25.3671875 43.69335938 C22.91160162 43.79961069 20.45591297 43.90164964 18 44 C17.64808594 44.78503906 17.29617188 45.57007813 16.93359375 46.37890625 C11.27900568 58.41151534 5.29504417 63.83226634 -7 69 C-15.51288622 71.85493135 -26.38456581 70.77073058 -34.50390625 67.3203125 C-43.67204341 62.47081272 -49.84280849 55.49386527 -54 46 C-54 45.01 -54 44.02 -54 43 C-55.63705147 43.01332367 -55.63705147 43.01332367 -57.30717468 43.0269165 C-67.59214397 43.10800229 -77.87704842 43.16796543 -88.16226482 43.20724869 C-93.45002756 43.2281236 -98.73753226 43.25643978 -104.02514648 43.30175781 C-109.12798919 43.34521856 -114.23058369 43.36913783 -119.33359718 43.37950897 C-121.28047404 43.3868999 -123.22733731 43.40133266 -125.17410851 43.42292023 C-127.90112032 43.45195721 -130.62710652 43.45595588 -133.35424805 43.45410156 C-134.56158096 43.47567322 -134.56158096 43.47567322 -135.79330444 43.49768066 C-139.57680056 43.46984228 -141.75764167 43.15491003 -144.9778595 41.09661865 C-148.05971758 37.9012516 -148.40021613 35.55727571 -148.3515625 31.10546875 C-147.71660257 27.3027643 -145.78932244 25.59914137 -143 23 C-138.99594856 21.65307595 -134.92159083 21.86722552 -130.74316406 21.88647461 C-129.49870766 21.88625557 -129.49870766 21.88625557 -128.22911072 21.8860321 C-125.4912554 21.88672788 -122.75346841 21.89450461 -120.015625 21.90234375 C-118.11562131 21.90420912 -116.21561714 21.90563246 -114.31561279 21.90663147 C-109.31791859 21.91044727 -104.32025351 21.92026959 -99.3225708 21.93133545 C-94.22156162 21.94156969 -89.12054774 21.94613341 -84.01953125 21.95117188 C-74.01300805 21.96189268 -64.00650645 21.97895788 -54 22 C-53.69980957 20.895354 -53.39961914 19.79070801 -53.09033203 18.65258789 C-50.33969334 9.43800986 -42.8819138 3.45804823 -34.8671875 -1.25390625 C-24.22224976 -6.43203698 -10.22807899 -5.74453752 0 0 Z M-32 23 C-34.78810462 27.44268473 -35.57938261 31.89770038 -34.63671875 37.046875 C-33.07106811 41.84948432 -30.33726035 45.0578393 -26.25 47.9375 C-20.81699685 49.71367411 -16.1583122 49.74710807 -10.75 47.875 C-6.5703011 45.0252053 -3.63135676 41.89407029 -2 37 C-1.63173776 31.38400084 -1.78443993 27.82334011 -5 23 C-9.11397015 18.94088278 -12.33202725 16.82875084 -18.125 16.5625 C-24.26557499 16.63502648 -27.96843126 18.36714595 -32 23 Z " fill="#009A3C" transform="translate(445,223)"/>
<path d="M0 0 C1.546875 0.8353125 1.546875 0.8353125 3.125 1.6875 C8.91363524 6.34357617 14.32172085 11.96951722 17 19 C17 19.99 17 20.98 17 22 C18.44579941 21.99333817 18.44579941 21.99333817 19.92080688 21.98654175 C29.01350016 21.94596199 38.10617501 21.91599942 47.19893837 21.89637566 C51.87338669 21.88594768 56.54776179 21.87180643 61.22216797 21.84912109 C65.73496595 21.82735763 70.24769359 21.81542396 74.76054001 21.81024551 C76.48048383 21.80655605 78.20042388 21.79935146 79.92033768 21.78853989 C82.33320627 21.77397837 84.7457858 21.772024 87.15869141 21.77294922 C87.86647736 21.76575867 88.57426331 21.75856812 89.30349731 21.75115967 C94.80384645 21.77391525 99.20410115 22.39314313 103.375 26.125 C105.49187325 29.87023729 105.86780374 32.78859952 105 37 C103.20636089 39.8100346 101.98119065 41.50940468 99 43 C96.4377732 43.12226853 93.90091182 43.18565577 91.33740234 43.20532227 C90.54707108 43.21522186 89.75673981 43.22512146 88.94245911 43.23532104 C86.3236493 43.26697122 83.70482134 43.29170733 81.0859375 43.31640625 C79.27275108 43.33697274 77.45956948 43.35796913 75.64639282 43.37937927 C70.86901758 43.43463142 66.09159885 43.48402682 61.31414795 43.53222656 C56.44116332 43.58241866 51.56824202 43.63811667 46.6953125 43.69335938 C37.1302624 43.80097938 27.56515738 43.90241581 18 44 C17.60312988 44.82129395 17.20625977 45.64258789 16.79736328 46.48876953 C16.26868652 47.56755371 15.74000977 48.64633789 15.1953125 49.7578125 C14.67469238 50.82660645 14.15407227 51.89540039 13.61767578 52.99658203 C8.62590855 62.26442393 -0.24878999 66.74959666 -10 70 C-23.00395794 70.90968054 -33.61346827 69.63033283 -43.9921875 61 C-48.26440641 56.74440451 -51.58256657 51.52074331 -54 46 C-54 45.01 -54 44.02 -54 43 C-54.82201904 43.02094727 -55.64403809 43.04189453 -56.4909668 43.06347656 C-60.22301964 43.14673309 -63.95487694 43.19869247 -67.6875 43.25 C-68.98107422 43.28351563 -70.27464844 43.31703125 -71.60742188 43.3515625 C-72.85458984 43.36445313 -74.10175781 43.37734375 -75.38671875 43.390625 C-76.53358154 43.41157227 -77.68044434 43.43251953 -78.86206055 43.45410156 C-82.66442415 42.90384899 -84.28125209 41.65728809 -87 39 C-88.61764019 35.76471961 -88.57743699 32.49706225 -88 29 C-86.62331564 26.33231702 -85.29429002 25.09035313 -83 23 C-79.40232166 21.98449265 -75.98495124 21.88243342 -72.26171875 21.90234375 C-71.19501953 21.90556641 -70.12832031 21.90878906 -69.02929688 21.91210938 C-67.37510742 21.92467773 -67.37510742 21.92467773 -65.6875 21.9375 C-64.56537109 21.94201172 -63.44324219 21.94652344 -62.28710938 21.95117188 C-59.5246849 21.96292687 -56.76237002 21.97935923 -54 22 C-53.72542969 21.1028125 -53.45085937 20.205625 -53.16796875 19.28125 C-49.6590072 9.42329783 -42.89441406 2.65840196 -33.625 -1.875 C-22.80394034 -6.07563748 -10.17444893 -5.71441652 0 0 Z M-32.375 23.75 C-35.04574084 29.09148169 -35.62844561 32.94009495 -33.875 38.6875 C-31.17078734 43.46494236 -28.10726982 46.88825091 -23 49 C-18.06195847 49.70077817 -14.11116802 49.55558401 -9.625 47.3125 C-4.74452338 43.0130325 -2.18301521 39.79098196 -1.75 33.1875 C-1.83645839 28.46687187 -3.02275221 24.95088449 -6.46484375 21.5546875 C-11.30481661 17.41290143 -14.17505154 16.64188379 -20.39453125 16.72265625 C-25.72793149 17.29037951 -28.86863078 19.68999354 -32.375 23.75 Z " fill="#00983D" transform="translate(385,113)"/>
</svg>
